<svg width="1600" height="900" viewBox="0 0 1600 900" fill="none" xmlns="http://www.w3.org/2000/svg">
  <rect width="1600" height="900" fill="#09090B"/>
  <rect width="1600" height="900" fill="url(#bg)"/>
  <g opacity="0.18">
    <path d="M0 182H1600" stroke="url(#lineH)"/>
    <path d="M0 450H1600" stroke="url(#lineH)"/>
    <path d="M0 718H1600" stroke="url(#lineH)"/>
    <path d="M260 0V900" stroke="url(#lineV)"/>
    <path d="M800 0V900" stroke="url(#lineV)"/>
    <path d="M1340 0V900" stroke="url(#lineV)"/>
  </g>
  <g opacity="0.9">
    <path d="M-60 750C128 676 280 612 446 486C624 350 842 226 1220 182C1368 165 1482 166 1660 194" stroke="url(#curveA)" stroke-width="1.6"/>
    <path d="M980 -80C906 102 832 196 736 298C604 440 438 548 118 666" stroke="url(#curveB)" stroke-width="1.3"/>
    <path d="M1220 980C1166 790 1096 664 966 560C824 448 622 366 332 316" stroke="url(#curveC)" stroke-width="1.2"/>
  </g>
  <g filter="url(#blur)">
    <ellipse cx="352" cy="164" rx="244" ry="166" fill="#E8EDF4" fill-opacity="0.12"/>
    <ellipse cx="1286" cy="168" rx="260" ry="180" fill="#AEB9C9" fill-opacity="0.12"/>
    <ellipse cx="846" cy="638" rx="412" ry="212" fill="#636E7E" fill-opacity="0.14"/>
  </g>
  <g opacity="0.75">
    <circle cx="1220" cy="182" r="7" fill="#F5F5F7"/>
    <circle cx="446" cy="486" r="6" fill="#D5DBE3"/>
    <circle cx="332" cy="316" r="6" fill="#D5DBE3"/>
  </g>
  <defs>
    <linearGradient id="bg" x1="800" y1="0" x2="800" y2="900" gradientUnits="userSpaceOnUse">
      <stop stop-color="#151518"/>
      <stop offset="0.56" stop-color="#0E1014"/>
      <stop offset="1" stop-color="#08090C"/>
    </linearGradient>
    <linearGradient id="lineH" x1="0" y1="0" x2="1600" y2="0" gradientUnits="userSpaceOnUse">
      <stop stop-color="#F5F5F7" stop-opacity="0"/>
      <stop offset="0.5" stop-color="#F5F5F7" stop-opacity="0.2"/>
      <stop offset="1" stop-color="#F5F5F7" stop-opacity="0"/>
    </linearGradient>
    <linearGradient id="lineV" x1="0" y1="0" x2="0" y2="900" gradientUnits="userSpaceOnUse">
      <stop stop-color="#F5F5F7" stop-opacity="0"/>
      <stop offset="0.5" stop-color="#F5F5F7" stop-opacity="0.14"/>
      <stop offset="1" stop-color="#F5F5F7" stop-opacity="0"/>
    </linearGradient>
    <linearGradient id="curveA" x1="-60" y1="750" x2="1660" y2="194" gradientUnits="userSpaceOnUse">
      <stop stop-color="#C8D0DB" stop-opacity="0.2"/>
      <stop offset="0.5" stop-color="#F5F5F7"/>
      <stop offset="1" stop-color="#B6C0CD" stop-opacity="0.24"/>
    </linearGradient>
    <linearGradient id="curveB" x1="980" y1="-80" x2="118" y2="666" gradientUnits="userSpaceOnUse">
      <stop stop-color="#F5F5F7" stop-opacity="0.32"/>
      <stop offset="1" stop-color="#C3CCD8" stop-opacity="0.08"/>
    </linearGradient>
    <linearGradient id="curveC" x1="1220" y1="980" x2="332" y2="316" gradientUnits="userSpaceOnUse">
      <stop stop-color="#F5F5F7" stop-opacity="0.22"/>
      <stop offset="1" stop-color="#C8D0DB" stop-opacity="0.08"/>
    </linearGradient>
    <filter id="blur" x="-40" y="-120" width="1716" height="1038" filterUnits="userSpaceOnUse" color-interpolation-filters="sRGB">
      <feFlood flood-opacity="0" result="BackgroundImageFix"/>
      <feBlend mode="normal" in="SourceGraphic" in2="BackgroundImageFix" result="shape"/>
      <feGaussianBlur stdDeviation="70" result="effect1_foregroundBlur_1_2"/>
    </filter>
  </defs>
</svg>
