<svg width="1600" height="900" viewBox="0 0 1600 900" fill="none" xmlns="http://www.w3.org/2000/svg">
  <rect width="1600" height="900" fill="#0B1018"/>
  <rect width="1600" height="900" fill="url(#bg)"/>
  <g opacity="0.4">
    <path d="M0 120H1600" stroke="url(#gridH)"/>
    <path d="M0 300H1600" stroke="url(#gridH)"/>
    <path d="M0 480H1600" stroke="url(#gridH)"/>
    <path d="M0 660H1600" stroke="url(#gridH)"/>
    <path d="M180 0V900" stroke="url(#gridV)"/>
    <path d="M420 0V900" stroke="url(#gridV)"/>
    <path d="M660 0V900" stroke="url(#gridV)"/>
    <path d="M900 0V900" stroke="url(#gridV)"/>
    <path d="M1140 0V900" stroke="url(#gridV)"/>
    <path d="M1380 0V900" stroke="url(#gridV)"/>
  </g>
  <g filter="url(#blurA)">
    <ellipse cx="1250" cy="160" rx="320" ry="220" fill="#7F95B8" fill-opacity="0.34"/>
    <ellipse cx="310" cy="180" rx="260" ry="180" fill="#5E718A" fill-opacity="0.28"/>
    <ellipse cx="980" cy="710" rx="400" ry="220" fill="#33455C" fill-opacity="0.3"/>
  </g>
  <g opacity="0.9">
    <path d="M1018 154C1124 181 1204 265 1258 365C1307 456 1374 526 1512 576" stroke="url(#lineA)" stroke-width="2"/>
    <path d="M260 714C384 682 476 618 544 532C607 451 690 384 846 324" stroke="url(#lineB)" stroke-width="2"/>
    <path d="M688 135C824 190 939 269 1048 410" stroke="url(#lineC)" stroke-width="2"/>
  </g>
  <g opacity="0.88">
    <circle cx="1018" cy="154" r="8" fill="#D6E0EF"/>
    <circle cx="1512" cy="576" r="7" fill="#B4C1D6"/>
    <circle cx="260" cy="714" r="8" fill="#D6E0EF"/>
    <circle cx="846" cy="324" r="7" fill="#A1B2CB"/>
    <circle cx="688" cy="135" r="7" fill="#D9E5F3"/>
    <circle cx="1048" cy="410" r="7" fill="#A1B2CB"/>
  </g>
  <rect x="124" y="644" width="284" height="132" rx="24" fill="url(#panelA)" stroke="#FFFFFF" stroke-opacity="0.14"/>
  <rect x="1188" y="116" width="256" height="120" rx="24" fill="url(#panelB)" stroke="#FFFFFF" stroke-opacity="0.12"/>
  <rect x="1160" y="660" width="316" height="108" rx="24" fill="url(#panelC)" stroke="#FFFFFF" stroke-opacity="0.12"/>
  <defs>
    <linearGradient id="bg" x1="800" y1="0" x2="800" y2="900" gradientUnits="userSpaceOnUse">
      <stop stop-color="#121A26"/>
      <stop offset="1" stop-color="#090D14"/>
    </linearGradient>
    <linearGradient id="gridH" x1="0" y1="0" x2="1600" y2="0" gradientUnits="userSpaceOnUse">
      <stop stop-color="#FFFFFF" stop-opacity="0"/>
      <stop offset="0.5" stop-color="#CAD6E7" stop-opacity="0.22"/>
      <stop offset="1" stop-color="#FFFFFF" stop-opacity="0"/>
    </linearGradient>
    <linearGradient id="gridV" x1="0" y1="0" x2="0" y2="900" gradientUnits="userSpaceOnUse">
      <stop stop-color="#FFFFFF" stop-opacity="0"/>
      <stop offset="0.5" stop-color="#CAD6E7" stop-opacity="0.18"/>
      <stop offset="1" stop-color="#FFFFFF" stop-opacity="0"/>
    </linearGradient>
    <linearGradient id="lineA" x1="1018" y1="154" x2="1512" y2="576" gradientUnits="userSpaceOnUse">
      <stop stop-color="#D8E2F0"/>
      <stop offset="1" stop-color="#7B90AF"/>
    </linearGradient>
    <linearGradient id="lineB" x1="260" y1="714" x2="846" y2="324" gradientUnits="userSpaceOnUse">
      <stop stop-color="#E1E9F5"/>
      <stop offset="1" stop-color="#91A4C0"/>
    </linearGradient>
    <linearGradient id="lineC" x1="688" y1="135" x2="1048" y2="410" gradientUnits="userSpaceOnUse">
      <stop stop-color="#D6E0EE"/>
      <stop offset="1" stop-color="#6E819D"/>
    </linearGradient>
    <linearGradient id="panelA" x1="124" y1="644" x2="408" y2="776" gradientUnits="userSpaceOnUse">
      <stop stop-color="#121A26" stop-opacity="0.74"/>
      <stop offset="1" stop-color="#1A2432" stop-opacity="0.48"/>
    </linearGradient>
    <linearGradient id="panelB" x1="1188" y1="116" x2="1444" y2="236" gradientUnits="userSpaceOnUse">
      <stop stop-color="#141D2A" stop-opacity="0.68"/>
      <stop offset="1" stop-color="#263246" stop-opacity="0.42"/>
    </linearGradient>
    <linearGradient id="panelC" x1="1160" y1="660" x2="1476" y2="768" gradientUnits="userSpaceOnUse">
      <stop stop-color="#151E2B" stop-opacity="0.68"/>
      <stop offset="1" stop-color="#29384D" stop-opacity="0.42"/>
    </linearGradient>
    <filter id="blurA" x="-90" y="-70" width="1720" height="1050" filterUnits="userSpaceOnUse" color-interpolation-filters="sRGB">
      <feFlood flood-opacity="0" result="BackgroundImageFix"/>
      <feBlend mode="normal" in="SourceGraphic" in2="BackgroundImageFix" result="shape"/>
      <feGaussianBlur stdDeviation="70" result="effect1_foregroundBlur_1_2"/>
    </filter>
  </defs>
</svg>
